<svg width="1728" height="112" viewBox="0 0 1728 112" fill="none" xmlns="http://www.w3.org/2000/svg">
<path d="M-159.056 48.88C-146.768 58.608 -140.112 66.8 -140.112 79.088C-140.112 94.576 -151.12 103.28 -167.632 103.28C-175.312 103.28 -180.816 101.232 -185.04 101.232C-186.576 101.232 -187.984 101.488 -189.264 102H-190.16V79.472H-188.88C-187.6 93.936 -178.896 102.256 -167.76 102.256C-157.904 102.256 -153.808 95.728 -153.808 88.304C-153.808 78.32 -158.672 72.56 -171.088 62.832C-183.248 53.104 -189.904 44.912 -189.904 32.624C-189.904 17.648 -178 9.2 -162.512 9.2C-154.192 9.2 -152.144 11.12 -147.664 11.12C-146.256 11.12 -144.848 10.992 -143.44 10.48H-142.544V31.6H-143.824C-146.64 16.112 -151.504 10.352 -162 10.352C-172.112 10.352 -176.208 17.008 -176.208 24.432C-176.208 34.416 -171.344 39.152 -159.056 48.88ZM-76.73 80.112H-75.45V102H-132.794V100.976H-124.602V11.504H-132.794V10.48H-76.346V32.368H-77.626C-77.626 22.128 -82.874 11.504 -92.986 11.504H-107.066V56.304H-99.898C-94.01 56.304 -89.786 52.976 -85.69 47.984V65.648C-90.17 60.144 -94.01 57.328 -99.898 57.328H-107.066V100.976H-92.09C-81.978 100.976 -76.73 90.352 -76.73 80.112ZM-68.419 11.504V10.48H-36.163C-14.659 10.48 -4.931 19.824 -4.931 32.88C-4.931 46.448 -14.019 53.36 -25.539 55.28C-17.603 56.944 -12.995 61.04 -9.795 71.664L-5.571 85.36C-1.475 99.184 0.829002 100.976 6.97301 100.976V102H-3.779C-13.507 102 -19.267 99.312 -22.339 89.328L-29.251 66.032C-31.171 60.272 -32.707 56.816 -39.107 56.816V56.176H-36.035C-25.667 56.176 -22.595 45.808 -22.595 33.648C-22.595 21.616 -24.131 11.632 -36.035 11.632H-42.691V100.976H-34.499V102H-68.419V100.976H-60.227V11.504H-68.419ZM-0.506 11.504V10.48H31.366V11.504H24.454C24.582 13.424 25.222 15.6 25.862 17.392L45.446 78.32L65.03 16.88C65.414 15.728 65.542 15.088 65.542 14.192C65.542 12.272 63.75 11.504 60.934 11.504H54.534V10.48H76.166V11.504C69.126 11.504 67.718 13.04 66.182 17.776L38.918 103.28H36.614L5.638 11.504H-0.506ZM112.501 100.976V102H78.581V100.976H86.773V11.504H78.581V10.48H112.501V11.504H104.309V100.976H112.501ZM155.168 9.2C161.44 9.2 162.72 10.736 166.944 10.736C167.84 10.736 168.992 10.608 170.272 10.224H172.064V33.008H170.784C169.248 19.696 166.176 10.224 155.168 10.224C143.52 10.224 137.888 23.28 137.888 57.072C137.888 87.536 144.416 99.824 158.112 99.824C168.224 99.824 172.704 88.944 172.704 82.288H173.984C173.984 89.072 169.76 103.28 152.096 103.28C131.36 103.28 119.84 89.456 119.84 57.072C119.84 23.536 132.256 9.2 155.168 9.2ZM238.02 80.112H239.3V102H181.956V100.976H190.148V11.504H181.956V10.48H238.404V32.368H237.124C237.124 22.128 231.876 11.504 221.764 11.504H207.684V56.304H214.852C220.74 56.304 224.964 52.976 229.06 47.984V65.648C224.58 60.144 220.74 57.328 214.852 57.328H207.684V100.976H222.66C232.772 100.976 238.02 90.352 238.02 80.112ZM277.819 48.88C290.107 58.608 296.763 66.8 296.763 79.088C296.763 94.576 285.755 103.28 269.243 103.28C261.563 103.28 256.059 101.232 251.835 101.232C250.299 101.232 248.891 101.488 247.611 102H246.715V79.472H247.995C249.275 93.936 257.979 102.256 269.115 102.256C278.971 102.256 283.067 95.728 283.067 88.304C283.067 78.32 278.203 72.56 265.787 62.832C253.627 53.104 246.971 44.912 246.971 32.624C246.971 17.648 258.875 9.2 274.363 9.2C282.683 9.2 284.731 11.12 289.211 11.12C290.619 11.12 292.027 10.992 293.435 10.48H294.331V31.6H293.051C290.235 16.112 285.371 10.352 274.875 10.352C264.763 10.352 260.667 17.008 260.667 24.432C260.667 34.416 265.531 39.152 277.819 48.88Z" fill="#D5D5D5"/>
<path d="M391.954 9.83736C395.641 9.55736 398.721 11.6527 400.275 14.4574L405.968 24.7707C414.098 24.248 420.351 27.2534 424.859 31.2947C429.801 35.728 432.568 41.3 433.866 44.4734C435.266 47.894 434.23 51.4734 432.046 53.816L423.991 62.4214C427.006 69.9907 426.077 76.8647 423.627 82.404C420.939 88.4707 416.492 92.8247 413.874 95.0414C411.055 97.4307 407.331 97.552 404.428 96.194L393.756 91.196C387.488 96.3994 380.661 97.6407 374.641 97.02C368.038 96.3434 362.522 93.4594 359.605 91.6534C356.46 89.7074 355.195 86.2027 355.592 83.0247L357.048 71.33C350.16 66.976 346.87 60.8674 345.596 54.95C344.205 48.4634 345.241 42.3267 346.058 38.99C346.935 35.4014 349.875 33.11 353.02 32.508L364.594 30.2774C366.605 22.386 371.398 17.3647 376.634 14.3314C382.374 10.9994 388.534 10.0894 391.954 9.83736Z" fill="#DB4049"/>
<path d="M511.944 48.88C524.232 58.608 530.888 66.8 530.888 79.088C530.888 94.576 519.88 103.28 503.368 103.28C495.688 103.28 490.184 101.232 485.96 101.232C484.424 101.232 483.016 101.488 481.736 102H480.84V79.472H482.12C483.4 93.936 492.104 102.256 503.24 102.256C513.096 102.256 517.192 95.728 517.192 88.304C517.192 78.32 512.328 72.56 499.912 62.832C487.752 53.104 481.096 44.912 481.096 32.624C481.096 17.648 493 9.2 508.488 9.2C516.808 9.2 518.856 11.12 523.336 11.12C524.744 11.12 526.152 10.992 527.56 10.48H528.456V31.6H527.176C524.36 16.112 519.496 10.352 509 10.352C498.888 10.352 494.792 17.008 494.792 24.432C494.792 34.416 499.656 39.152 511.944 48.88ZM594.27 80.112H595.55V102H538.206V100.976H546.398V11.504H538.206V10.48H594.654V32.368H593.374C593.374 22.128 588.126 11.504 578.014 11.504H563.934V56.304H571.102C576.99 56.304 581.214 52.976 585.31 47.984V65.648C580.83 60.144 576.99 57.328 571.102 57.328H563.934V100.976H578.91C589.022 100.976 594.27 90.352 594.27 80.112ZM602.581 11.504V10.48H634.837C656.341 10.48 666.069 19.824 666.069 32.88C666.069 46.448 656.981 53.36 645.461 55.28C653.397 56.944 658.005 61.04 661.205 71.664L665.429 85.36C669.525 99.184 671.829 100.976 677.973 100.976V102H667.221C657.493 102 651.733 99.312 648.661 89.328L641.749 66.032C639.829 60.272 638.293 56.816 631.893 56.816V56.176H634.965C645.333 56.176 648.405 45.808 648.405 33.648C648.405 21.616 646.869 11.632 634.965 11.632H628.309V100.976H636.501V102H602.581V100.976H610.773V11.504H602.581ZM670.494 11.504V10.48H702.366V11.504H695.454C695.582 13.424 696.222 15.6 696.862 17.392L716.446 78.32L736.03 16.88C736.414 15.728 736.542 15.088 736.542 14.192C736.542 12.272 734.75 11.504 731.934 11.504H725.534V10.48H747.166V11.504C740.126 11.504 738.718 13.04 737.182 17.776L709.918 103.28H707.614L676.638 11.504H670.494ZM783.501 100.976V102H749.581V100.976H757.773V11.504H749.581V10.48H783.501V11.504H775.309V100.976H783.501ZM826.168 9.2C832.44 9.2 833.72 10.736 837.944 10.736C838.84 10.736 839.992 10.608 841.272 10.224H843.064V33.008H841.784C840.248 19.696 837.176 10.224 826.168 10.224C814.52 10.224 808.888 23.28 808.888 57.072C808.888 87.536 815.416 99.824 829.112 99.824C839.224 99.824 843.704 88.944 843.704 82.288H844.984C844.984 89.072 840.76 103.28 823.096 103.28C802.36 103.28 790.84 89.456 790.84 57.072C790.84 23.536 803.256 9.2 826.168 9.2ZM909.02 80.112H910.3V102H852.956V100.976H861.148V11.504H852.956V10.48H909.404V32.368H908.124C908.124 22.128 902.876 11.504 892.764 11.504H878.684V56.304H885.852C891.74 56.304 895.964 52.976 900.06 47.984V65.648C895.58 60.144 891.74 57.328 885.852 57.328H878.684V100.976H893.66C903.772 100.976 909.02 90.352 909.02 80.112ZM948.819 48.88C961.107 58.608 967.763 66.8 967.763 79.088C967.763 94.576 956.755 103.28 940.243 103.28C932.563 103.28 927.059 101.232 922.835 101.232C921.299 101.232 919.891 101.488 918.611 102H917.715V79.472H918.995C920.275 93.936 928.979 102.256 940.115 102.256C949.971 102.256 954.067 95.728 954.067 88.304C954.067 78.32 949.203 72.56 936.787 62.832C924.627 53.104 917.971 44.912 917.971 32.624C917.971 17.648 929.875 9.2 945.363 9.2C953.683 9.2 955.731 11.12 960.211 11.12C961.619 11.12 963.027 10.992 964.435 10.48H965.331V31.6H964.051C961.235 16.112 956.371 10.352 945.875 10.352C935.763 10.352 931.667 17.008 931.667 24.432C931.667 34.416 936.531 39.152 948.819 48.88Z" fill="#D5D5D5"/>
<path fill-rule="evenodd" clip-rule="evenodd" d="M1065.88 16.1157C1063.88 10.6281 1056.12 10.6281 1054.12 16.1157L1045.05 41.052L1020.12 50.1226C1014.63 52.1216 1014.63 59.8784 1020.12 61.8774L1045.05 70.948L1054.12 95.8843C1056.12 101.372 1063.88 101.372 1065.88 95.8843L1074.95 70.948L1099.88 61.8774C1105.37 59.8784 1105.37 52.1216 1099.88 50.1226L1074.95 41.052L1065.88 16.1157Z" fill="#F5F360"/>
<path d="M1182.94 48.88C1195.23 58.608 1201.89 66.8 1201.89 79.088C1201.89 94.576 1190.88 103.28 1174.37 103.28C1166.69 103.28 1161.18 101.232 1156.96 101.232C1155.42 101.232 1154.02 101.488 1152.74 102H1151.84V79.472H1153.12C1154.4 93.936 1163.1 102.256 1174.24 102.256C1184.1 102.256 1188.19 95.728 1188.19 88.304C1188.19 78.32 1183.33 72.56 1170.91 62.832C1158.75 53.104 1152.1 44.912 1152.1 32.624C1152.1 17.648 1164 9.2 1179.49 9.2C1187.81 9.2 1189.86 11.12 1194.34 11.12C1195.74 11.12 1197.15 10.992 1198.56 10.48H1199.46V31.6H1198.18C1195.36 16.112 1190.5 10.352 1180 10.352C1169.89 10.352 1165.79 17.008 1165.79 24.432C1165.79 34.416 1170.66 39.152 1182.94 48.88ZM1265.27 80.112H1266.55V102H1209.21V100.976H1217.4V11.504H1209.21V10.48H1265.65V32.368H1264.37C1264.37 22.128 1259.13 11.504 1249.01 11.504H1234.93V56.304H1242.1C1247.99 56.304 1252.21 52.976 1256.31 47.984V65.648C1251.83 60.144 1247.99 57.328 1242.1 57.328H1234.93V100.976H1249.91C1260.02 100.976 1265.27 90.352 1265.27 80.112ZM1273.58 11.504V10.48H1305.84C1327.34 10.48 1337.07 19.824 1337.07 32.88C1337.07 46.448 1327.98 53.36 1316.46 55.28C1324.4 56.944 1329.01 61.04 1332.21 71.664L1336.43 85.36C1340.53 99.184 1342.83 100.976 1348.97 100.976V102H1338.22C1328.49 102 1322.73 99.312 1319.66 89.328L1312.75 66.032C1310.83 60.272 1309.29 56.816 1302.89 56.816V56.176H1305.97C1316.33 56.176 1319.41 45.808 1319.41 33.648C1319.41 21.616 1317.87 11.632 1305.97 11.632H1299.31V100.976H1307.5V102H1273.58V100.976H1281.77V11.504H1273.58ZM1341.49 11.504V10.48H1373.37V11.504H1366.45C1366.58 13.424 1367.22 15.6 1367.86 17.392L1387.45 78.32L1407.03 16.88C1407.41 15.728 1407.54 15.088 1407.54 14.192C1407.54 12.272 1405.75 11.504 1402.93 11.504H1396.53V10.48H1418.17V11.504C1411.13 11.504 1409.72 13.04 1408.18 17.776L1380.92 103.28H1378.61L1347.64 11.504H1341.49ZM1454.5 100.976V102H1420.58V100.976H1428.77V11.504H1420.58V10.48H1454.5V11.504H1446.31V100.976H1454.5ZM1497.17 9.2C1503.44 9.2 1504.72 10.736 1508.94 10.736C1509.84 10.736 1510.99 10.608 1512.27 10.224H1514.06V33.008H1512.78C1511.25 19.696 1508.18 10.224 1497.17 10.224C1485.52 10.224 1479.89 23.28 1479.89 57.072C1479.89 87.536 1486.42 99.824 1500.11 99.824C1510.22 99.824 1514.7 88.944 1514.7 82.288H1515.98C1515.98 89.072 1511.76 103.28 1494.1 103.28C1473.36 103.28 1461.84 89.456 1461.84 57.072C1461.84 23.536 1474.26 9.2 1497.17 9.2ZM1580.02 80.112H1581.3V102H1523.96V100.976H1532.15V11.504H1523.96V10.48H1580.4V32.368H1579.12C1579.12 22.128 1573.88 11.504 1563.76 11.504H1549.68V56.304H1556.85C1562.74 56.304 1566.96 52.976 1571.06 47.984V65.648C1566.58 60.144 1562.74 57.328 1556.85 57.328H1549.68V100.976H1564.66C1574.77 100.976 1580.02 90.352 1580.02 80.112ZM1619.82 48.88C1632.11 58.608 1638.76 66.8 1638.76 79.088C1638.76 94.576 1627.76 103.28 1611.24 103.28C1603.56 103.28 1598.06 101.232 1593.84 101.232C1592.3 101.232 1590.89 101.488 1589.61 102H1588.72V79.472H1590C1591.28 93.936 1599.98 102.256 1611.12 102.256C1620.97 102.256 1625.07 95.728 1625.07 88.304C1625.07 78.32 1620.2 72.56 1607.79 62.832C1595.63 53.104 1588.97 44.912 1588.97 32.624C1588.97 17.648 1600.88 9.2 1616.36 9.2C1624.68 9.2 1626.73 11.12 1631.21 11.12C1632.62 11.12 1634.03 10.992 1635.44 10.48H1636.33V31.6H1635.05C1632.24 16.112 1627.37 10.352 1616.88 10.352C1606.76 10.352 1602.67 17.008 1602.67 24.432C1602.67 34.416 1607.53 39.152 1619.82 48.88Z" fill="#D5D5D5"/>
<path d="M1733.95 9.83736C1737.64 9.55736 1740.72 11.6527 1742.27 14.4574L1747.97 24.7707C1756.1 24.248 1762.35 27.2534 1766.86 31.2947C1771.8 35.728 1774.57 41.3 1775.87 44.4734C1777.27 47.894 1776.23 51.4734 1774.05 53.816L1765.99 62.4214C1769.01 69.9907 1768.08 76.8647 1765.63 82.404C1762.94 88.4707 1758.49 92.8247 1755.87 95.0414C1753.05 97.4307 1749.33 97.552 1746.43 96.194L1735.76 91.196C1729.49 96.3994 1722.66 97.6407 1716.64 97.02C1710.04 96.3434 1704.52 93.4594 1701.6 91.6534C1698.46 89.7074 1697.19 86.2027 1697.59 83.0247L1699.05 71.33C1692.16 66.976 1688.87 60.8674 1687.6 54.95C1686.2 48.4634 1687.24 42.3267 1688.06 38.99C1688.93 35.4014 1691.87 33.11 1695.02 32.508L1706.59 30.2774C1708.6 22.386 1713.4 17.3647 1718.63 14.3314C1724.37 10.9994 1730.53 10.0894 1733.95 9.83736Z" fill="#DB4049"/>
</svg>
